<?xml version="1.0" encoding="utf-8"?>
<?xml-stylesheet type="text/xsl" href="rss1.xsl"?>
<rss version="2.0" xmlns:atom="http://www.w3.org/2005/Atom" xmlns:content="http://purl.org/rss/1.0/modules/content/" xmlns:dc="http://purl.org/dc/elements/1.1/" xmlns:media="http://search.yahoo.com/mrss/">
<channel>
 <title>Getty</title>
 <link>http://www.gettyimg.com/</link>
 <atom:link href="http://www.gettyimg.com/" rel="self" type="application/rss+xml" />

 
                <item>
                <title><![CDATA[【Singles (lossy)】Dolby Atmos - Sia - Fame Won’t Love You feat. Paris Hilton |E-AC3-JOC|16bits/48kHz|768kbits]]]></title>
                <link><![CDATA[https://sharemania.us/threads/sia-fame-won%E2%80%99t-love-you-feat-paris-hilton-e-ac3-joc-16bits-48khz-768kbits.242671/]]></link>
                <description><![CDATA[<article>
<blockquote class="messageText SelectQuoteContainer ugc baseHtml">
<div style="text-align: center"><img src="https://is1-ssl.mzstatic.com/image/thumb/Music116/v4/3a/2b/1b/3a2b1bdb-f404-e20a-4d0a-47c454f1c3fa/075678612466.jpg/592x592bb.webp" class="bbCodeImage LbImage" alt="[​IMG]" data-url="https://is1-ssl.mzstatic.com/image/thumb/Music116/v4/3a/2b/1b/3a2b1bdb-f404-e20a-4d0a-47c454f1c3fa/075678612466.jpg/592x592bb.webp" style=""><br>
<img src="https://i.postimg.cc/yYX3z95R/dolby-atmos-vector-logo-2022-modified.png" class="bbCodeImage LbImage" alt="[​IMG]" data-url="https://i.postimg.cc/yYX3z95R/dolby-atmos-vector-logo-2022-modified.png" style=""><br>
​</div>
<div class="ToggleTriggerAnchor bbCodeSpoilerContainer">
<button type="button" class="button bbCodeSpoilerButton ToggleTrigger Tooltip JsOnly" data-target="> .SpoilerTarget"><span>Spoiler: <span class="SpoilerTitle">INFO</span></span></button>
<div class="SpoilerTarget bbCodeSpoilerText">
<div class="bbCodeBlock bbCodeCode">
<div class="type">Code:</div>
<pre>General
Complete name                            : 13 Fame Won’t Love You (feat. Paris Hilton).m4a
Format                                   : MPEG-4
Format profile                           : Base Media
Codec ID                                 : isom (isom/dby1/iso2/mp41)
File size                                : 18.9 MiB
Duration                                 : 3 min 20 s
Overall bit rate mode                    : Constant
Overall bit rate                         : 791 kb/s
Album                                    : Reasonable Woman
Album/Sorted by                          : Reasonable Woman
Album/Performer                          : Sia
Part/Position                            : 1
Part/Total                               : 1
Track name                               : Fame Won’t Love You (feat. Paris Hilton)
Track name/Position                      : 13
Track name/Total                         : 15
Performer                                : Sia
Performer/Sorted by                      : Sia
Composer                                 : Greg Kurstin &amp; Sia
Composer/Sorted by                       : Greg Kurstin &amp; Sia
Genre                                    : Pop
ContentType                              : Music
Recorded date                            : 2024-04-19 07:00:00 UTC
Copyright                                : under exclusive license to Atlantic Recording Corporation, ℗ 2024 Monkey Puzzle Music, Inc.
Cover                                    : Yes
Lyrics                                   : Watch children cry / The pageant sells the lie / Third place isn't winning, you know / And neither is first / The pressure and the thirst / For the skeleton's show /  / I am so thin skinned / Don't scratch the surface / Please let me live within / Within this circus /  / Little dreams come crashing / Let them wave in passing / 'Cause fame won't love you like a mother, like a father should / And you may wish for Oscars, Grammys and blockbusters / Fame won't love you like a brother, like a lover should / Oh-oh, fame won't love you like a mother, like a father should / Oh-oh, fame won't love you like a mother, like a father should /  / I searched in your eyes for some glimmer of light / Tap dancing for one million miles / I looked for the smiles / Hoping in them I'd find validation for my futile existence /  / I am so thin skinned / Don't scratch the surface / Please let me live within / Within this circus /  / Little dreams come crashing / Let them wave in passing / 'Cause fame won't love you like a mother, like a father should / And you may wish for Oscars, Grammys and blockbusters / Fame won't love you like a brother, like a lover should / Oh-oh, fame won't love you like a mother, like a father should / Oh-oh, fame won't love you like a mother, like a father should /  / Oh-oh, fame won't love you like a mother, like a father should / Oh-oh, fame won't love you like a mother, like a father should / Oh-oh
Rating                                   : None
GenreID                                  : 14
AppleStoreCountry                        : Chile
AlbumTitleID                             : 28721078
cmID                                     : 28721078
PlayListID                               : 1729487131
AppleStoreCatalogID                      : 1729487320
Vendor                                   : Warner:isrc:USAT22400531
Title/Sort                               : Fame Won’t Love You (feat. Paris Hilton)

Audio
ID                                       : 1
Format                                   : E-AC-3 JOC
Format/Info                              : Enhanced AC-3 with Joint Object Coding
Commercial name                          : Dolby Digital Plus with Dolby Atmos
Codec ID                                 : ec-3
Duration                                 : 3 min 20 s
Bit rate mode                            : Constant
Bit rate                                 : 768 kb/s
Channel(s)                               : 6 channels
Channel layout                           : L R C LFE Ls Rs
Sampling rate                            : 48.0 kHz
Frame rate                               : 31.250 FPS (1536 SPF)
Compression mode                         : Lossy
Stream size                              : 18.3 MiB (97%)
Title                                    : Core Media Audio
Service kind                             : Complete Main
Default                                  : Yes
Alternate group                          : 1
Complexity index                         : Not present / 16
Number of dynamic objects                : 15
Bed channel count                        : 1 channel
Bed channel configuration                : LFE
Dialog Normalization                     : -19 dB
compr                                    : -0.28 dB
dmixmod                                  : Lo/Ro
ltrtcmixlev                              : -3.0 dB
ltrtsurmixlev                            : -3.0 dB
lorocmixlev                              : -3.0 dB
lorosurmixlev                            : -3.0 dB
dialnorm_Average                         : -19 dB
dialnorm_Minimum                         : -19 dB
dialnorm_Maximum                         : -19 dB</pre>
</div><div style="text-align: center">​</div></div>
</div><div style="text-align: center"><br>
<div class="bbCodeBlock bbCodeVfcHH HiddenContent">
<div class="attribution type">Hidden Content:</div>
<blockquote>You must reply before you can see the hidden data contained here.</blockquote>
</div></div>
<div class="messageTextEndMarker">&nbsp;</div>
</blockquote>
</article>]]></description>
                <author><![CDATA[fstambuk]]></author>
                </item>

                
                <item>
                <title><![CDATA[【Apple Music】WEB-RiP - Drake - Another Late Night (feat. Lil Yachty) [Apple HD Music Video]]]></title>
                <link><![CDATA[https://sharemania.us/threads/drake-another-late-night-feat-lil-yachty-apple-hd-music-video.242670/]]></link>
                <description><![CDATA[<article>
<blockquote class="messageText SelectQuoteContainer ugc baseHtml">
<span style="font-size: 22px"><b>Drake - Another Late Night (feat. Lil Yachty) [Apple HD Music Video]</b></span><br>
<br>
<img src="https://imgur.com/grc94my.jpg" class="bbCodeImage LbImage" alt="[​IMG]" data-url="https://imgur.com/grc94my.jpg" style=""><br>
<br>
<div class="bbCodeBlock bbCodeCode">
<div class="type">Code:</div>
<pre>General
Format                         : MPEG-4
Codec ID                       : M4V  (isom/iso4/M4V /mp42)
File size                      : 234 MiB
Duration                       : 3 min 8 s
Overall bit rate mode          : Variable
Overall bit rate               : 10.4 Mb/s
Movie name                     : Another Late Night (feat. Lil Yachty)
Performer                      : Drake
Genre                          : Hip-Hop/Rap
ContentType                    : Music Video
Recorded date                  : UTC 2023-10-06 07:00:00
Encoded date                   : UTC 2024-03-12 19:31:17
Tagged date                    : UTC 2024-03-12 19:31:17
Copyright                      : ℗ 2023 OVO, under exclusive license to Republic Records, a division of UMG Recordings, Inc.
Cover                          : Yes
Rating                         : Explicit
GenreID                        : 1618
AppleStoreCountry              : Canada
AlbumTitleID                   : 271256
AppleStoreCatalogID            : 1711506381

Video
ID                             : 2
Format                         : AVC
Format/Info                    : Advanced Video Codec
Format profile                 : High@L4
Format settings                : CABAC / 4 Ref Frames
Format settings, CABAC         : Yes
Format settings, Reference fra : 4 frames
Codec ID                       : avc1
Codec ID/Info                  : Advanced Video Coding
Duration                       : 3 min 8 s
Duration_FirstFrame            : 42 ms
Bit rate                       : 10.1 Mb/s
Maximum bit rate               : 23.8 Mb/s
Width                          : 1 920 pixels
Height                         : 1 080 pixels
Display aspect ratio           : 16:9
Frame rate mode                : Constant
Frame rate                     : 24.000 FPS
Color space                    : YUV
Chroma subsampling             : 4:2:0
Bit depth                      : 8 bits
Scan type                      : Progressive
Bits/(Pixel*Frame)             : 0.204
Stream size                    : 228 MiB (97%)
Title                          : Core Media Video
Language                       : English
Encoded date                   : UTC 2024-02-17 00:04:40
Tagged date                    : UTC 2024-03-12 19:31:25
Color range                    : Limited
Color primaries                : BT.709
Transfer characteristics       : BT.709
Matrix coefficients            : BT.709
Codec configuration box        : avcC

Audio
ID                             : 1
Format                         : AAC LC
Format/Info                    : Advanced Audio Codec Low Complexity
Codec ID                       : mp4a-40-2
Duration                       : 3 min 8 s
Duration_LastFrame             : -11 ms
Bit rate mode                  : Variable
Bit rate                       : 265 kb/s
Maximum bit rate               : 401 kb/s
Channel(s)                     : 2 channels
Channel layout                 : L R
Sampling rate                  : 48.0 kHz
Frame rate                     : 46.875 FPS (1024 SPF)
Compression mode               : Lossy
Stream size                    : 5.92 MiB (3%)
Title                          : Core Media Audio
Encoded date                   : UTC 2024-02-17 00:04:02
Tagged date                    : UTC 2024-03-12 19:31:25

Text
ID                             : 3-CC1
Format                         : EIA-608
Muxing mode                    : Final Cut
Codec ID                       : c608
Duration                       : 3 min 8 s
Duration of the visible conten : 3 min 5 s
Start time                     : 2 s 470 ms
End time                       : 3 min 7 s
End time (commands)            : 3 min 7 s
Bit rate mode                  : Constant
Maximum bit rate               : 1 040 b/s
Frame rate                     : 0.323 FPS
Stream size                    : 0.00 Byte (0%)
Title                          : Core Media Closed Caption
Language                       : English
Forced                         : No
Encoded date                   : UTC 2024-02-17 00:04:40
Tagged date                    : UTC 2024-03-12 19:31:25
Count of events                : 59
Count of PopOn events          : 59
Count of lines                 : 141
Maximum count of lines per eve : 3
Count of frames before first e : 0
Type of the first event        : PopOn</pre>
</div>
<div class="bbCodeBlock bbCodeVfcHH HiddenContent">
<div class="attribution type">Hidden Content:</div>
<blockquote>You must reply before you can see the hidden data contained here.</blockquote>
</div>
<div class="messageTextEndMarker">&nbsp;</div>
</blockquote>
</article>]]></description>
                <author><![CDATA[Mu$iC @$YLUM]]></author>
                </item>

                </channel></rss>